STARTFONT 2.1
COMMENT CVS:Version $Id 1.4
COMMENT
COMMENT (C) CENA/J.L. Vinot, 2002, CENA (Centre d'Etudes de la Navigation Aťrienne)
COMMENT This software is free software; you can redistribute it and/or modify it 
COMMENT under the terms of the GNU Lesser General Public License as published by the Free Software Foundation: 
COMMENT either version 2 of the License, or (at your option) any later version.
COMMENT 
COMMENT This software is distributed in the hope that it will be useful, but WITHOUT ANY WARRANTY; 
COMMENT without even the implied warranty of MERCHANTABILITY or FITNESS FOR A PARTICULAR PURPOSE.  
COMMENT See the GNU Lesser General Public License for more details.
COMMENT 
COMMENT You should have received a copy of the GNU Lesser General Public License along with this software; 
COMMENT if not, write to the Free Software Foundation, Inc., 59 Temple Place - Suite 330, Boston, MA  02111-1307, USA.
COMMENT Please refer to http://www.gnu.org/copyleft/gpl.html
COMMENT 
COMMENT This font has been originally designed by CENA/France for the specific needs of Air Traffic Control. 
COMMENT For example, it must offer good legibility and avoid any confusion between character shapes. 
COMMENT CENA would like to preserve its qualities. If you have any specific need, you can modify this font, 
COMMENT but we would like you to change its name to avoid any confusion between your new font and the original one designed by CENA.
COMMENT Note however, that as implied in the LGPL licence, you must credit CENA for the original work. 
COMMENT Finally, CENA would appreciate it if you send back any enhancement or extension made to the original work. 
COMMENT This statement must be fully included with any further distribution of the font.
COMMENT 
COMMENT to contact us: email to:  pii-contact@cena.fr
COMMENT write to: CENA, 7 avenue Edouard Belin, 31400 Toulouse, France 
FONT -CenaPii-Bleriot Radar-SemiBold-R-Normal--14-140-75-75-P-93-ISO8859-15
SIZE 14 75 75

STARTCHAR gcid14
ENCODING 20
SWIDTH 685 0
DWIDTH 10 0
BBX 8 2 1 5
BITMAP
FF
FF
ENDCHAR
STARTCHAR gcid15
ENCODING 21
SWIDTH 822 0
DWIDTH 12 0
BBX 10 10 1 1
BITMAP
C000
E000
7000
3840
1CC0
0FC0
07C0
07C0
0FC0
1FC0
ENDCHAR
STARTCHAR gcid16
ENCODING 22
SWIDTH 822 0
DWIDTH 12 0
BBX 10 10 1 0
BITMAP
1FC0
0FC0
07C0
07C0
0FC0
1CC0
3840
7000
E000
C000
ENDCHAR
STARTCHAR space
ENCODING 32
SWIDTH 685 0
DWIDTH 10 0
BBX 0 0 0 0
BITMAP
ENDCHAR
STARTCHAR exclam
ENCODING 33
SWIDTH 480 0
DWIDTH 7 0
BBX 2 11 2 0
BITMAP
C0
C0
C0
C0
C0
C0
C0
C0
00
C0
C0
ENDCHAR
STARTCHAR quotedbl
ENCODING 34
SWIDTH 480 0
DWIDTH 7 0
BBX 5 4 1 7
BITMAP
D8
D8
D8
D8
ENDCHAR
STARTCHAR numbersign
ENCODING 35
SWIDTH 685 0
DWIDTH 10 0
BBX 10 9 0 1
BITMAP
1980
1980
7FC0
3300
3300
3300
FF80
6600
6600
ENDCHAR
STARTCHAR dollar
ENCODING 36
SWIDTH 617 0
DWIDTH 9 0
BBX 7 15 1 -2
BITMAP
10
10
7C
DC
D0
F0
78
3C
1E
D6
D6
7C
38
10
10
ENDCHAR
STARTCHAR percent
ENCODING 37
SWIDTH 960 0
DWIDTH 14 0
BBX 12 11 1 0
BITMAP
7180
F980
DB00
FB00
7600
0600
0CE0
0DF0
19B0
19F0
30E0
ENDCHAR
STARTCHAR ampersand
ENCODING 38
SWIDTH 822 0
DWIDTH 12 0
BBX 10 11 1 0
BITMAP
3C00
6E00
6600
7600
3C00
7800
FDC0
CF80
C700
EF80
7DC0
ENDCHAR
STARTCHAR quotesingle
ENCODING 39
SWIDTH 274 0
DWIDTH 4 0
BBX 2 4 1 7
BITMAP
C0
C0
C0
C0
ENDCHAR
STARTCHAR parenleft
ENCODING 40
SWIDTH 548 0
DWIDTH 8 0
BBX 4 15 3 -3
BITMAP
30
60
60
C0
C0
C0
C0
C0
C0
C0
C0
C0
60
60
30
ENDCHAR
STARTCHAR parenright
ENCODING 41
SWIDTH 548 0
DWIDTH 8 0
BBX 4 15 1 -3
BITMAP
C0
60
60
30
30
30
30
30
30
30
30
30
60
60
C0
ENDCHAR
STARTCHAR asterisk
ENCODING 42
SWIDTH 617 0
DWIDTH 9 0
BBX 7 7 1 4
BITMAP
10
D6
7C
38
7C
D6
10
ENDCHAR
STARTCHAR plus
ENCODING 43
SWIDTH 822 0
DWIDTH 12 0
BBX 8 8 2 1
BITMAP
18
18
18
FF
FF
18
18
18
ENDCHAR
STARTCHAR comma
ENCODING 44
SWIDTH 480 0
DWIDTH 7 0
BBX 3 6 2 -3
BITMAP
40
E0
C0
C0
80
80
ENDCHAR
STARTCHAR hyphen
ENCODING 45
SWIDTH 685 0
DWIDTH 10 0
BBX 6 2 2 3
BITMAP
FC
FC
ENDCHAR
STARTCHAR period
ENCODING 46
SWIDTH 411 0
DWIDTH 6 0
BBX 3 3 1 0
BITMAP
40
E0
40
ENDCHAR
STARTCHAR slash
ENCODING 47
SWIDTH 685 0
DWIDTH 10 0
BBX 8 13 1 -2
BITMAP
03
03
06
06
0C
0C
18
18
30
30
60
60
C0
ENDCHAR
STARTCHAR zero
ENCODING 48
SWIDTH 754 0
DWIDTH 11 0
BBX 9 10 1 0
BITMAP
1C00
7F00
6300
CD80
C980
D980
D180
6300
7F00
1C00
ENDCHAR
STARTCHAR one
ENCODING 49
SWIDTH 685 0
DWIDTH 10 0
BBX 6 10 1 0
BITMAP
0C
1C
3C
6C
EC
0C
0C
0C
0C
0C
ENDCHAR
STARTCHAR two
ENCODING 50
SWIDTH 685 0
DWIDTH 10 0
BBX 8 10 1 0
BITMAP
3C
7E
C6
C6
0C
1C
38
60
FF
FF
ENDCHAR
STARTCHAR three
ENCODING 51
SWIDTH 685 0
DWIDTH 10 0
BBX 8 10 1 0
BITMAP
7F
EE
0C
18
3E
07
03
C3
FE
3C
ENDCHAR
STARTCHAR four
ENCODING 52
SWIDTH 685 0
DWIDTH 10 0
BBX 8 10 1 0
BITMAP
18
18
30
32
66
66
FF
FF
06
06
ENDCHAR
STARTCHAR five
ENCODING 53
SWIDTH 685 0
DWIDTH 10 0
BBX 8 10 1 0
BITMAP
FE
FC
C0
F8
FE
07
03
C3
FE
3C
ENDCHAR
STARTCHAR six
ENCODING 54
SWIDTH 685 0
DWIDTH 10 0
BBX 9 10 1 0
BITMAP
1C00
3800
7000
6C00
FF00
E300
C180
C300
FF00
3C00
ENDCHAR
STARTCHAR seven
ENCODING 55
SWIDTH 685 0
DWIDTH 10 0
BBX 8 10 1 0
BITMAP
FF
FF
06
0C
0C
18
18
30
30
70
ENDCHAR
STARTCHAR eight
ENCODING 56
SWIDTH 685 0
DWIDTH 10 0
BBX 9 10 0 0
BITMAP
3E00
7700
6300
7700
3E00
7F00
6380
E180
7B80
3F00
ENDCHAR
STARTCHAR nine
ENCODING 57
SWIDTH 685 0
DWIDTH 10 0
BBX 8 10 1 0
BITMAP
3E
EF
C3
C3
E7
7F
16
0E
1C
38
ENDCHAR
STARTCHAR colon
ENCODING 58
SWIDTH 548 0
DWIDTH 8 0
BBX 3 8 2 0
BITMAP
40
E0
40
00
00
40
E0
40
ENDCHAR
STARTCHAR semicolon
ENCODING 59
SWIDTH 480 0
DWIDTH 7 0
BBX 3 10 2 -2
BITMAP
40
E0
40
00
00
40
E0
C0
C0
80
ENDCHAR
STARTCHAR less
ENCODING 60
SWIDTH 685 0
DWIDTH 10 0
BBX 6 9 2 0
BITMAP
0C
18
30
60
C0
60
30
18
0C
ENDCHAR
STARTCHAR equal
ENCODING 61
SWIDTH 754 0
DWIDTH 11 0
BBX 7 6 2 1
BITMAP
FE
FE
00
00
FE
FE
ENDCHAR
STARTCHAR greater
ENCODING 62
SWIDTH 685 0
DWIDTH 10 0
BBX 6 9 2 0
BITMAP
C0
60
30
18
0C
18
30
60
C0
ENDCHAR
STARTCHAR question
ENCODING 63
SWIDTH 617 0
DWIDTH 9 0
BBX 7 11 2 0
BITMAP
7C
FE
C6
06
0C
18
30
30
00
30
30
ENDCHAR
STARTCHAR at
ENCODING 64
SWIDTH 1097 0
DWIDTH 16 0
BBX 14 14 1 -2
BITMAP
07C0
1EF0
3838
6018
67CC
CFCC
D8C4
98CC
D9CC
DFF8
CF70
6000
7BC0
1F80
ENDCHAR
STARTCHAR A
ENCODING 65
SWIDTH 685 0
DWIDTH 10 0
BBX 9 10 0 0
BITMAP
1C00
1C00
3600
3600
3600
6300
7F00
7F00
C180
C180
ENDCHAR
STARTCHAR B
ENCODING 66
SWIDTH 685 0
DWIDTH 10 0
BBX 8 10 1 0
BITMAP
FC
FE
C6
CE
FC
FE
C3
C3
FF
FE
ENDCHAR
STARTCHAR C
ENCODING 67
SWIDTH 685 0
DWIDTH 10 0
BBX 8 10 1 0
BITMAP
1C
7F
62
C0
C0
C0
C0
63
7F
1C
ENDCHAR
STARTCHAR D
ENCODING 68
SWIDTH 685 0
DWIDTH 10 0
BBX 8 10 1 0
BITMAP
F8
FE
C6
C3
C3
C3
C3
C6
FE
F8
ENDCHAR
STARTCHAR E
ENCODING 69
SWIDTH 617 0
DWIDTH 9 0
BBX 7 10 1 0
BITMAP
FC
FC
C0
C0
F8
F8
C0
C0
FE
FE
ENDCHAR
STARTCHAR F
ENCODING 70
SWIDTH 548 0
DWIDTH 8 0
BBX 6 10 1 0
BITMAP
FC
FC
C0
C0
F8
F8
C0
C0
C0
C0
ENDCHAR
STARTCHAR G
ENCODING 71
SWIDTH 754 0
DWIDTH 11 0
BBX 9 10 1 0
BITMAP
1E00
7F80
6100
C000
CF80
CF80
C180
6180
7F80
1F80
ENDCHAR
STARTCHAR H
ENCODING 72
SWIDTH 754 0
DWIDTH 11 0
BBX 8 10 1 0
BITMAP
C3
C3
C3
C3
FF
FF
C3
C3
C3
C3
ENDCHAR
STARTCHAR I
ENCODING 73
SWIDTH 411 0
DWIDTH 6 0
BBX 2 10 2 0
BITMAP
C0
C0
C0
C0
C0
C0
C0
C0
C0
C0
ENDCHAR
STARTCHAR J
ENCODING 74
SWIDTH 548 0
DWIDTH 8 0
BBX 6 10 0 0
BITMAP
0C
0C
0C
0C
0C
0C
0C
4C
FC
78
ENDCHAR
STARTCHAR K
ENCODING 75
SWIDTH 685 0
DWIDTH 10 0
BBX 8 10 1 0
BITMAP
C6
CC
DC
F8
F0
F8
DC
CE
C7
C3
ENDCHAR
STARTCHAR L
ENCODING 76
SWIDTH 548 0
DWIDTH 8 0
BBX 6 10 1 0
BITMAP
C0
C0
C0
C0
C0
C0
C0
C0
FC
FC
ENDCHAR
STARTCHAR M
ENCODING 77
SWIDTH 891 0
DWIDTH 13 0
BBX 11 10 1 0
BITMAP
C060
C060
E0E0
E0E0
F1E0
F1E0
DB60
CE60
CE60
C460
ENDCHAR
STARTCHAR N
ENCODING 78
SWIDTH 754 0
DWIDTH 11 0
BBX 8 10 1 0
BITMAP
C3
E3
E3
F3
DB
DB
CF
C7
C7
C3
ENDCHAR
STARTCHAR O
ENCODING 79
SWIDTH 822 0
DWIDTH 12 0
BBX 10 10 1 0
BITMAP
1E00
7F80
6180
C0C0
C0C0
C0C0
C0C0
6180
7F80
1E00
ENDCHAR
STARTCHAR P
ENCODING 80
SWIDTH 617 0
DWIDTH 9 0
BBX 7 10 1 0
BITMAP
FC
FE
C6
C6
CE
FC
F8
C0
C0
C0
ENDCHAR
STARTCHAR Q
ENCODING 81
SWIDTH 822 0
DWIDTH 12 0
BBX 11 10 1 0
BITMAP
1E00
7F80
6180
C0C0
C0C0
DEC0
E7C0
6380
7FC0
1EE0
ENDCHAR
STARTCHAR R
ENCODING 82
SWIDTH 685 0
DWIDTH 10 0
BBX 8 10 1 0
BITMAP
FC
FE
C6
C6
CE
FC
F8
DC
CE
C7
ENDCHAR
STARTCHAR S
ENCODING 83
SWIDTH 685 0
DWIDTH 10 0
BBX 8 11 1 0
BITMAP
08
3E
76
60
78
3E
0F
43
E3
7E
3C
ENDCHAR
STARTCHAR T
ENCODING 84
SWIDTH 617 0
DWIDTH 9 0
BBX 8 10 0 0
BITMAP
FF
FF
18
18
18
18
18
18
18
18
ENDCHAR
STARTCHAR U
ENCODING 85
SWIDTH 754 0
DWIDTH 11 0
BBX 8 10 1 0
BITMAP
C3
C3
C3
C3
C3
C3
C3
E7
7E
3C
ENDCHAR
STARTCHAR V
ENCODING 86
SWIDTH 685 0
DWIDTH 10 0
BBX 8 10 0 0
BITMAP
C3
C3
66
66
66
3C
3C
3C
18
18
ENDCHAR
STARTCHAR W
ENCODING 87
SWIDTH 960 0
DWIDTH 14 0
BBX 13 10 0 0
BITMAP
C618
C618
C630
6730
6F30
6B60
7960
39E0
39C0
10C0
ENDCHAR
STARTCHAR X
ENCODING 88
SWIDTH 685 0
DWIDTH 10 0
BBX 8 10 1 0
BITMAP
E3
63
76
3C
18
3C
3E
66
C7
C3
ENDCHAR
STARTCHAR Y
ENCODING 89
SWIDTH 617 0
DWIDTH 9 0
BBX 8 10 0 0
BITMAP
C3
C3
66
66
3C
3C
18
18
18
18
ENDCHAR
STARTCHAR Z
ENCODING 90
SWIDTH 685 0
DWIDTH 10 0
BBX 9 10 0 0
BITMAP
7F80
7F00
0600
0E00
0C00
1800
3000
7000
7F80
FF80
ENDCHAR
STARTCHAR bracketleft
ENCODING 91
SWIDTH 548 0
DWIDTH 8 0
BBX 3 15 3 -3
BITMAP
E0
C0
C0
C0
C0
C0
C0
C0
C0
C0
C0
C0
C0
C0
E0
ENDCHAR
STARTCHAR backslash
ENCODING 92
SWIDTH 685 0
DWIDTH 10 0
BBX 8 13 1 -2
BITMAP
C0
C0
60
60
30
30
18
18
0C
0C
06
06
03
ENDCHAR
STARTCHAR bracketright
ENCODING 93
SWIDTH 548 0
DWIDTH 8 0
BBX 3 15 2 -3
BITMAP
E0
60
60
60
60
60
60
60
60
60
60
60
60
60
E0
ENDCHAR
STARTCHAR asciicircum
ENCODING 94
SWIDTH 1097 0
DWIDTH 16 0
BBX 9 4 3 7
BITMAP
1C00
3600
6300
C180
ENDCHAR
STARTCHAR underscore
ENCODING 95
SWIDTH 685 0
DWIDTH 10 0
BBX 10 1 0 -3
BITMAP
FFC0
ENDCHAR
STARTCHAR a
ENCODING 97
SWIDTH 617 0
DWIDTH 9 0
BBX 7 8 1 0
BITMAP
7C
6E
16
7E
E6
C6
FE
76
ENDCHAR
STARTCHAR b
ENCODING 98
SWIDTH 617 0
DWIDTH 9 0
BBX 7 11 1 0
BITMAP
C0
C0
C0
DC
FE
E6
C6
C6
C6
FC
F8
ENDCHAR
STARTCHAR c
ENCODING 99
SWIDTH 548 0
DWIDTH 8 0
BBX 6 8 1 0
BITMAP
38
7C
C4
C0
C0
C4
FC
78
ENDCHAR
STARTCHAR d
ENCODING 100
SWIDTH 617 0
DWIDTH 9 0
BBX 7 11 1 0
BITMAP
06
06
06
76
FE
CE
C6
C6
C6
FE
76
ENDCHAR
STARTCHAR e
ENCODING 101
SWIDTH 617 0
DWIDTH 9 0
BBX 7 8 1 0
BITMAP
3C
7E
C6
DE
FC
E0
7E
3C
ENDCHAR
STARTCHAR f
ENCODING 102
SWIDTH 480 0
DWIDTH 7 0
BBX 7 11 0 0
BITMAP
1E
3E
30
7C
FC
30
30
30
30
30
30
ENDCHAR
STARTCHAR g
ENCODING 103
SWIDTH 617 0
DWIDTH 9 0
BBX 7 12 1 -4
BITMAP
3E
7E
C6
C6
C6
CE
FE
76
06
06
7C
38
ENDCHAR
STARTCHAR h
ENCODING 104
SWIDTH 617 0
DWIDTH 9 0
BBX 7 11 1 0
BITMAP
C0
C0
C0
DC
FE
E6
C6
C6
C6
C6
C6
ENDCHAR
STARTCHAR i
ENCODING 105
SWIDTH 411 0
DWIDTH 6 0
BBX 2 12 2 0
BITMAP
C0
C0
00
00
C0
C0
C0
C0
C0
C0
C0
C0
ENDCHAR
STARTCHAR j
ENCODING 106
SWIDTH 411 0
DWIDTH 6 0
BBX 5 15 -1 -3
BITMAP
18
18
00
00
08
18
18
18
18
18
18
18
18
F8
70
ENDCHAR
STARTCHAR k
ENCODING 107
SWIDTH 617 0
DWIDTH 9 0
BBX 8 11 1 0
BITMAP
C0
C0
C0
C6
DC
F8
F0
F8
DC
CE
C7
ENDCHAR
STARTCHAR l
ENCODING 108
SWIDTH 480 0
DWIDTH 7 0
BBX 4 11 2 0
BITMAP
C0
C0
C0
C0
C0
C0
C0
C0
C0
F0
70
ENDCHAR
STARTCHAR m
ENCODING 109
SWIDTH 960 0
DWIDTH 14 0
BBX 12 8 1 0
BITMAP
DCE0
FFF0
E730
C630
C630
C630
C630
C630
ENDCHAR
STARTCHAR n
ENCODING 110
SWIDTH 617 0
DWIDTH 9 0
BBX 7 8 1 0
BITMAP
DC
FE
E6
C6
C6
C6
C6
C6
ENDCHAR
STARTCHAR o
ENCODING 111
SWIDTH 685 0
DWIDTH 10 0
BBX 8 8 1 0
BITMAP
3C
7E
E7
C3
C3
E7
7E
3C
ENDCHAR
STARTCHAR p
ENCODING 112
SWIDTH 617 0
DWIDTH 9 0
BBX 7 11 1 -3
BITMAP
F8
FC
C6
C6
C6
E6
FE
DC
C0
C0
C0
ENDCHAR
STARTCHAR q
ENCODING 113
SWIDTH 617 0
DWIDTH 9 0
BBX 7 11 1 -3
BITMAP
3E
7E
C6
C6
C6
CE
FE
76
06
06
06
ENDCHAR
STARTCHAR r
ENCODING 114
SWIDTH 480 0
DWIDTH 7 0
BBX 6 8 1 0
BITMAP
D8
FC
E0
C0
C0
C0
C0
C0
ENDCHAR
STARTCHAR s
ENCODING 115
SWIDTH 548 0
DWIDTH 8 0
BBX 7 8 0 0
BITMAP
3C
6C
70
3C
0E
46
EE
7C
ENDCHAR
STARTCHAR t
ENCODING 116
SWIDTH 480 0
DWIDTH 7 0
BBX 5 11 1 0
BITMAP
20
60
60
F8
F8
60
60
60
60
78
38
ENDCHAR
STARTCHAR u
ENCODING 117
SWIDTH 617 0
DWIDTH 9 0
BBX 7 8 1 0
BITMAP
C6
C6
C6
C6
C6
CE
FE
76
ENDCHAR
STARTCHAR v
ENCODING 118
SWIDTH 548 0
DWIDTH 8 0
BBX 7 8 1 0
BITMAP
C6
C6
66
6C
6C
38
38
10
ENDCHAR
STARTCHAR w
ENCODING 119
SWIDTH 891 0
DWIDTH 13 0
BBX 12 8 1 0
BITMAP
C630
C630
C630
6F60
6B60
79E0
39C0
30C0
ENDCHAR
STARTCHAR x
ENCODING 120
SWIDTH 548 0
DWIDTH 8 0
BBX 7 8 1 0
BITMAP
C6
EE
7C
38
38
6C
EE
C6
ENDCHAR
STARTCHAR y
ENCODING 121
SWIDTH 617 0
DWIDTH 9 0
BBX 8 11 1 -3
BITMAP
C3
C3
63
66
36
3C
1C
18
30
70
60
ENDCHAR
STARTCHAR z
ENCODING 122
SWIDTH 617 0
DWIDTH 9 0
BBX 7 8 1 0
BITMAP
7E
FE
0C
18
30
60
FE
FE
ENDCHAR
STARTCHAR braceleft
ENCODING 123
SWIDTH 548 0
DWIDTH 8 0
BBX 6 15 1 -3
BITMAP
1C
30
30
30
30
30
30
C0
30
30
30
30
30
30
1C
ENDCHAR
STARTCHAR bar
ENCODING 124
SWIDTH 617 0
DWIDTH 9 0
BBX 2 16 3 -3
BITMAP
C0
C0
C0
C0
C0
C0
C0
C0
C0
C0
C0
C0
C0
C0
C0
C0
ENDCHAR
STARTCHAR braceright
ENCODING 125
SWIDTH 548 0
DWIDTH 8 0
BBX 6 15 1 -3
BITMAP
E0
30
30
30
30
30
30
0C
30
30
30
30
30
30
E0
ENDCHAR
STARTCHAR Euro
ENCODING 164
SWIDTH 754 0
DWIDTH 11 0
BBX 9 11 1 0
BITMAP
0E00
3F00
3180
6080
FF00
6000
FC00
6000
3180
3F00
0E00
ENDCHAR
STARTCHAR degree
ENCODING 176
SWIDTH 480 0
DWIDTH 7 0
BBX 5 5 1 6
BITMAP
70
D8
88
D8
70
ENDCHAR
STARTCHAR Agrave
ENCODING 192
SWIDTH 685 0
DWIDTH 10 0
BBX 9 14 0 0
BITMAP
1800
0C00
0000
0000
1C00
1C00
3600
3600
3600
6300
7F00
7F00
C180
C180
ENDCHAR
STARTCHAR Acircumflex
ENCODING 194
SWIDTH 685 0
DWIDTH 10 0
BBX 9 14 0 0
BITMAP
1C00
3600
0000
0000
1C00
1C00
3600
3600
3600
6300
7F00
7F00
C180
C180
ENDCHAR
STARTCHAR Ccedilla
ENCODING 199
SWIDTH 617 0
DWIDTH 9 0
BBX 7 13 1 -3
BITMAP
3C
7E
E4
C0
C0
C0
C0
E6
7E
3C
18
78
70
ENDCHAR
STARTCHAR Egrave
ENCODING 200
SWIDTH 617 0
DWIDTH 9 0
BBX 7 14 1 0
BITMAP
30
18
00
00
FC
FC
C0
C0
F8
F8
C0
C0
FE
FE
ENDCHAR
STARTCHAR Eacute
ENCODING 201
SWIDTH 617 0
DWIDTH 9 0
BBX 7 14 1 0
BITMAP
18
30
00
00
FC
FC
C0
C0
F8
F8
C0
C0
FE
FE
ENDCHAR
STARTCHAR Ecircumflex
ENCODING 202
SWIDTH 617 0
DWIDTH 9 0
BBX 7 14 1 0
BITMAP
38
6C
00
00
FC
FC
C0
C0
F8
F8
C0
C0
FE
FE
ENDCHAR
STARTCHAR Edieresis
ENCODING 203
SWIDTH 617 0
DWIDTH 9 0
BBX 7 14 1 0
BITMAP
6C
6C
00
00
FC
FC
C0
C0
F8
F8
C0
C0
FE
FE
ENDCHAR
STARTCHAR Icircumflex
ENCODING 206
SWIDTH 411 0
DWIDTH 6 0
BBX 5 14 1 0
BITMAP
70
D8
00
00
60
60
60
60
60
60
60
60
60
60
ENDCHAR
STARTCHAR Idieresis
ENCODING 207
SWIDTH 411 0
DWIDTH 6 0
BBX 5 14 1 0
BITMAP
D8
D8
00
00
60
60
60
60
60
60
60
60
60
60
ENDCHAR
STARTCHAR Ocircumflex
ENCODING 212
SWIDTH 754 0
DWIDTH 11 0
BBX 9 14 1 0
BITMAP
1C00
3600
0000
0000
1C00
7F00
6300
C180
C180
C180
C180
6300
7F00
1C00
ENDCHAR
STARTCHAR Ugrave
ENCODING 217
SWIDTH 754 0
DWIDTH 11 0
BBX 8 14 1 0
BITMAP
18
0C
00
00
C3
C3
C3
C3
C3
C3
C3
E7
7E
3C
ENDCHAR
STARTCHAR Ucircumflex
ENCODING 219
SWIDTH 754 0
DWIDTH 11 0
BBX 8 14 1 0
BITMAP
1C
36
00
00
C3
C3
C3
C3
C3
C3
C3
E7
7E
3C
ENDCHAR
STARTCHAR Udieresis
ENCODING 220
SWIDTH 754 0
DWIDTH 11 0
BBX 8 14 1 0
BITMAP
36
36
00
00
C3
C3
C3
C3
C3
C3
C3
E7
7E
3C
ENDCHAR
STARTCHAR agrave
ENCODING 224
SWIDTH 617 0
DWIDTH 9 0
BBX 7 12 1 0
BITMAP
30
18
00
00
7C
6E
16
7E
E6
C6
FE
76
ENDCHAR
STARTCHAR acircumflex
ENCODING 226
SWIDTH 617 0
DWIDTH 9 0
BBX 7 12 1 0
BITMAP
38
6C
00
00
7C
6E
16
7E
E6
C6
FE
76
ENDCHAR
STARTCHAR ccedilla
ENCODING 231
SWIDTH 548 0
DWIDTH 8 0
BBX 6 11 1 -3
BITMAP
38
7C
C4
C0
C0
C4
FC
78
18
78
30
ENDCHAR
STARTCHAR egrave
ENCODING 232
SWIDTH 617 0
DWIDTH 9 0
BBX 7 12 1 0
BITMAP
30
18
00
00
3C
7E
C6
DE
FC
E0
7E
3C
ENDCHAR
STARTCHAR eacute
ENCODING 233
SWIDTH 617 0
DWIDTH 9 0
BBX 7 12 1 0
BITMAP
0C
18
00
00
3C
7E
C6
DE
FC
E0
7E
3C
ENDCHAR
STARTCHAR ecircumflex
ENCODING 234
SWIDTH 617 0
DWIDTH 9 0
BBX 7 12 1 0
BITMAP
38
6C
00
00
3C
7E
C6
DE
FC
E0
7E
3C
ENDCHAR
STARTCHAR edieresis
ENCODING 235
SWIDTH 617 0
DWIDTH 9 0
BBX 7 12 1 0
BITMAP
6C
6C
00
00
3C
7E
C6
DE
FC
E0
7E
3C
ENDCHAR
STARTCHAR icircumflex
ENCODING 238
SWIDTH 411 0
DWIDTH 6 0
BBX 5 12 1 0
BITMAP
70
D8
00
00
60
60
60
60
60
60
60
60
ENDCHAR
STARTCHAR idieresis
ENCODING 239
SWIDTH 411 0
DWIDTH 6 0
BBX 5 12 1 0
BITMAP
D8
D8
00
00
60
60
60
60
60
60
60
60
ENDCHAR
STARTCHAR ocircumflex
ENCODING 244
SWIDTH 685 0
DWIDTH 10 0
BBX 8 12 1 0
BITMAP
1C
36
00
00
3C
7E
E7
C3
C3
E7
7E
3C
ENDCHAR
STARTCHAR ugrave
ENCODING 249
SWIDTH 617 0
DWIDTH 9 0
BBX 7 12 1 0
BITMAP
30
18
00
00
C6
C6
C6
C6
C6
CE
FE
76
ENDCHAR
STARTCHAR ucircumflex
ENCODING 251
SWIDTH 617 0
DWIDTH 9 0
BBX 7 12 1 0
BITMAP
38
6C
00
00
C6
C6
C6
C6
C6
CE
FE
76
ENDCHAR
STARTCHAR udieresis
ENCODING 252
SWIDTH 617 0
DWIDTH 9 0
BBX 7 12 1 0
BITMAP
6C
6C
00
00
C6
C6
C6
C6
C6
CE
FE
76
ENDCHAR
ENDFONT
